<svg xmlns="http://www.w3.org/2000/svg" width="18" height="18" viewBox="0 0 18 18">
  <g id="checkbox" fill="#fff">
    <path d="M 16 17 L 2 17 C 1.448600053787231 17 1 16.55139923095703 1 16 L 1 2 C 1 1.448600053787231 1.448600053787231 1 2 1 L 16 1 C 16.55139923095703 1 17 1.448600053787231 17 2 L 17 16 C 17 16.55139923095703 16.55139923095703 17 16 17 Z" stroke="none"/>
    <path d="M 2 2 L 2 16 L 16 16 L 16 2 L 2 2 M 2 0 L 16 0 C 17.10457038879395 0 18 0.8954296112060547 18 2 L 18 16 C 18 17.10457038879395 17.10457038879395 18 16 18 L 2 18 C 0.8954296112060547 18 0 17.10457038879395 0 16 L 0 2 C 0 0.8954296112060547 0.8954296112060547 0 2 0 Z" stroke="none" fill="#22262a"/>
  </g>
</svg>
